<?xml version="1.0" encoding="UTF-8" standalone="no"?>
<!-- Generator: Adobe Illustrator 19.0.0, SVG Export Plug-In . SVG Version: 6.00 Build 0)  -->

<svg
   xmlns:dc="http://purl.org/dc/elements/1.1/"
   xmlns:cc="http://creativecommons.org/ns#"
   xmlns:rdf="http://www.w3.org/1999/02/22-rdf-syntax-ns#"
   xmlns:svg="http://www.w3.org/2000/svg"
   xmlns="http://www.w3.org/2000/svg"
   xmlns:sodipodi="http://sodipodi.sourceforge.net/DTD/sodipodi-0.dtd"
   xmlns:inkscape="http://www.inkscape.org/namespaces/inkscape"
   version="1.1"
   id="Layer_1"
   x="0px"
   y="0px"
   viewBox="-269 361 72 72"
   style="enable-background:new -269 361 72 72;"
   xml:space="preserve"
   sodipodi:docname="reddit.com.svg"
   inkscape:version="0.92.3 (2405546, 2018-03-11)"><metadata
   id="metadata850"><rdf:RDF><cc:Work
       rdf:about=""><dc:format>image/svg+xml</dc:format><dc:type
         rdf:resource="http://purl.org/dc/dcmitype/StillImage" /><dc:title>Reddit Logo</dc:title></cc:Work></rdf:RDF></metadata><defs
   id="defs848">
	

		
	
			
		
				
			
					
				
						
						
					</defs><sodipodi:namedview
   pagecolor="#ffffff"
   bordercolor="#666666"
   borderopacity="1"
   objecttolerance="10"
   gridtolerance="10"
   guidetolerance="10"
   inkscape:pageopacity="0"
   inkscape:pageshadow="2"
   inkscape:window-width="1731"
   inkscape:window-height="1057"
   id="namedview846"
   showgrid="false"
   inkscape:zoom="3.2777778"
   inkscape:cx="36"
   inkscape:cy="36"
   inkscape:window-x="181"
   inkscape:window-y="-8"
   inkscape:window-maximized="1"
   inkscape:current-layer="Layer_1" />
<style
   type="text/css"
   id="style831">
	.st0{fill:#FF4500;}
	.st1{fill:#FFFFFF;}
</style>
<title
   id="title833">Reddit Logo</title>
<desc
   id="desc835">Created with Sketch.</desc>
<path
   id="Fill-1"
   class="st0"
   d="m -233,433 c -19.9,0 -36,-16.1 -36,-36 0,-19.9 16.1,-36 36,-36 19.9,0 36,16.1 36,36 0,19.9 -16.1,36 -36,36 z"
   inkscape:connector-curvature="0"
   style="fill:#000000" /><path
   id="Fill-3"
   class="st1"
   d="m -224.8,404.5 c -2.1,0 -3.7,-1.7 -3.7,-3.7 0,-2.1 1.7,-3.8 3.7,-3.8 2,0 3.7,1.7 3.7,3.8 0.1,2 -1.6,3.7 -3.7,3.7 m 0.7,6.2 c -2.6,2.6 -7.5,2.8 -8.9,2.8 -1.4,0 -6.3,-0.2 -8.9,-2.8 -0.4,-0.4 -0.4,-1 0,-1.4 0.4,-0.4 1,-0.4 1.4,0 1.6,1.6 5.1,2.2 7.5,2.2 2.5,0 5.9,-0.6 7.5,-2.2 0.4,-0.4 1,-0.4 1.4,0 0.4,0.4 0.4,1 0,1.4 m -20.9,-9.9 c 0,-2.1 1.7,-3.8 3.8,-3.8 2.1,0 3.7,1.7 3.7,3.8 0,2.1 -1.7,3.7 -3.7,3.7 -2.1,0 -3.8,-1.7 -3.8,-3.7 m 36,-3.8 c 0,-2.9 -2.4,-5.3 -5.3,-5.3 -1.4,0 -2.7,0.6 -3.6,1.5 -3.6,-2.6 -8.5,-4.3 -14,-4.5 l 2.4,-11.3 7.8,1.7 c 0.1,2 1.7,3.6 3.7,3.6 2.1,0 3.7,-1.7 3.7,-3.7 0,-2.1 -1.7,-3.7 -3.7,-3.7 -1.5,0 -2.7,0.9 -3.3,2.1 l -8.7,-1.9 c -0.2,-0.1 -0.5,0 -0.7,0.1 -0.2,0.1 -0.4,0.3 -0.4,0.6 l -2.6,12.3 c 0,0.1 0,0.1 0,0.2 -5.6,0.1 -10.6,1.8 -14.3,4.4 -0.9,-0.9 -2.2,-1.5 -3.6,-1.5 -2.9,0 -5.3,2.4 -5.3,5.3 0,2.1 1.3,4 3.1,4.8 -0.1,0.5 -0.1,1.1 -0.1,1.6 0,8.1 9.4,14.6 21,14.6 11.6,0 21,-6.5 21,-14.6 0,-0.5 0,-1.1 -0.1,-1.6 1.7,-0.7 3,-2.6 3,-4.7"
   inkscape:connector-curvature="0"
   style="fill:#ffffff" />
</svg>