<?xml version="1.0" encoding="UTF-8" standalone="no"?>
<svg
   xmlns:dc="http://purl.org/dc/elements/1.1/"
   xmlns:cc="http://creativecommons.org/ns#"
   xmlns:rdf="http://www.w3.org/1999/02/22-rdf-syntax-ns#"
   xmlns:svg="http://www.w3.org/2000/svg"
   xmlns="http://www.w3.org/2000/svg"
   style="enable-background:new"
   height="140"
   width="140"
   id="svg18"
   version="1.1"
   viewBox="161.418 189.631 140 140">
  <metadata
     id="metadata24">
    <rdf:RDF>
      <cc:Work
         rdf:about="">
        <dc:format>image/svg+xml</dc:format>
        <dc:type
           rdf:resource="http://purl.org/dc/dcmitype/StillImage" />
        <dc:title></dc:title>
      </cc:Work>
    </rdf:RDF>
  </metadata>
  <defs
     id="defs22" />
  <path
     style="fill:#ffffff"
     id="path6"
     d="m 184.4745,218.4575 c 0,0 4.387,4.201 5.265,8.402 v 11.764 c 0,3.361 -1.755,9.243 -1.755,13.444 0,5.042 0.877,6.724 1.755,9.244 0.878,2.52 0.877,2.521 0.877,6.722 0,4.201 -0.877,20.167 -0.877,20.167 l -0.877,12.604 2.632,5.882 3.51,-3.361 c 0,0 0.878,2.521 2.632,5.042 1.755,2.521 8.775,5.042 8.775,5.042 l 8.774,2.521 28.079,-10.923 c 0,0 3.51,2.521 6.143,3.36 2.632,0.841 11.406,5.042 15.794,5.882 4.387,0.841 7.02,1.681 10.529,1.681 3.509,0 7.02,-0.84 10.529,-2.521 3.51,-0.84 7.897,-2.521 7.897,-2.521 l 1.755,-10.084 -21.059,-13.444 -4.387,3.359 c 0,0 -1.755,-14.284 -2.632,-21.846 -0.877,-7.563 -2.632,-17.646 -2.632,-17.646 l 2.632,-1.681 c 0,0 -1.755,-13.444 -2.632,-16.806 0,-3.361 1.755,-11.764 1.755,-13.444 0,-1.68 0.877,-6.722 0.877,-6.722 v -4.201 l -6.142,-2.521 -7.02,2.521 -12.285,-5.042 -11.407,5.882 0.877,6.723 h 19.304 l 7.897,5.042 v 5.042 l -2.632,2.521 c 0,0 -0.878,8.402 -0.878,14.285 -0.877,5.882 -0.877,12.604 -1.754,19.326 -0.878,8.402 -2.633,15.965 -5.265,22.688 0,0 -10.529,5.881 -15.794,8.402 -7.897,2.521 -14.917,2.521 -14.917,2.521 l -12.284,-5.042 c -1.754,-10.923 -3.51,-20.166 -4.387,-27.729 -0.878,-2.521 -0.878,-3.361 0,-6.722 0,-2.521 1.754,-11.764 1.754,-11.764 l -2.632,-2.521 c 0,0 1.755,-10.084 2.632,-13.444 0.878,-3.361 0.878,-6.723 1.755,-9.243 0,-2.521 0.877,-5.042 0.877,-5.042 l -1.754,-5.881 c 0,0 -7.02,-2.521 -10.529,-3.361 -2.633,-0.84 -7.02,-1.681 -7.02,-1.681 h -7.02 c -2.632,0 -7.02,0.84 -7.02,0.84 l -5.265,5.042 c 0,0 0.878,2.521 1.755,3.361 l 0.877,1.68 2.632,0.84 3.51,4.202 c 0,0 3.51,0 6.142,-0.84 0.002,0.838 2.634,-10e-4 2.634,-10e-4" />
</svg>
